<svg xmlns="http://www.w3.org/2000/svg" id="canvas" viewBox="210.320 241.039 863.770 306.914"><path d="M 265.68,331.12 C 264.89 333.13, 265.03 336.03, 264.03 341.50 C 263.04 346.97, 262.19 350.98, 260.70 358.46 C 259.22 365.93, 258.32 370.97, 256.60 378.87 C 254.89 386.76, 253.75 390.89, 252.13 397.93 C 250.52 404.97, 249.82 408.53, 248.51 414.07 C 247.20 419.62, 246.35 421.94, 245.58 425.63 C 244.82 429.33, 244.56 431.08, 244.70 432.53 C 244.84 433.98, 245.57 434.13, 246.30 432.88 C 247.03 431.63, 247.40 429.92, 248.35 426.28 C 249.29 422.63, 249.82 420.21, 251.02 414.64 C 252.22 409.07, 252.78 405.48, 254.34 398.43 C 255.91 391.37, 257.09 387.25, 258.85 379.36 C 260.61 371.46, 261.57 366.43, 263.13 358.95 C 264.68 351.47, 265.66 347.47, 266.62 341.96 C 267.59 336.46, 268.14 333.61, 267.95 331.44 C 267.76 329.27, 266.46 329.11, 265.68 331.12" style="stroke: black; fill: black;"/><path d="M 213.77,371.98 C 214.49 372.88, 215.38 373.32, 217.86 374.38 C 220.34 375.44, 222.12 375.88, 226.15 377.27 C 230.19 378.66, 232.91 379.38, 238.05 381.33 C 243.19 383.28, 246.23 384.71, 251.87 387.00 C 257.50 389.29, 260.49 390.59, 266.21 392.77 C 271.92 394.96, 274.97 395.92, 280.45 397.94 C 285.93 399.97, 288.61 401.05, 293.58 402.90 C 298.56 404.75, 300.92 405.64, 305.32 407.20 C 309.72 408.75, 311.82 409.52, 315.58 410.65 C 319.34 411.79, 320.96 412.39, 324.11 412.88 C 327.25 413.37, 328.69 413.47, 331.32 413.11 C 333.94 412.75, 335.35 412.03, 337.23 411.08 C 339.12 410.13, 339.76 409.49, 340.76 408.37 C 341.75 407.24, 342.21 406.31, 342.23 405.46 C 342.25 404.61, 341.65 404.15, 340.87 404.10 C 340.09 404.06, 339.46 404.71, 338.33 405.23 C 337.20 405.76, 336.76 406.09, 335.22 406.73 C 333.67 407.37, 332.73 408.09, 330.62 408.44 C 328.51 408.79, 327.49 408.75, 324.67 408.47 C 321.86 408.19, 320.22 407.92, 316.55 407.05 C 312.88 406.19, 310.73 405.53, 306.33 404.15 C 301.93 402.78, 299.55 401.94, 294.56 400.19 C 289.57 398.44, 286.86 397.39, 281.38 395.40 C 275.91 393.41, 272.86 392.47, 267.18 390.25 C 261.50 388.03, 258.56 386.74, 252.99 384.32 C 247.43 381.89, 244.41 380.34, 239.35 378.14 C 234.28 375.93, 231.65 374.98, 227.67 373.30 C 223.69 371.63, 222.10 370.43, 219.43 369.74 C 216.75 369.06, 215.42 369.43, 214.29 369.88 C 213.16 370.32, 213.06 371.08, 213.77 371.98" style="stroke: black; fill: black;"/><path d="M 343.20,358.17 C 342.76 359.80, 342.93 362.13, 343.35 366.08 C 343.78 370.03, 344.29 372.76, 345.33 377.92 C 346.36 383.08, 347.07 386.74, 348.54 391.89 C 350.02 397.04, 350.89 399.59, 352.71 403.69 C 354.53 407.78, 355.36 409.67, 357.65 412.35 C 359.94 415.03, 361.37 416.06, 364.15 417.09 C 366.94 418.13, 368.54 418.41, 371.58 417.52 C 374.61 416.63, 376.18 415.45, 379.33 412.65 C 382.48 409.86, 384.12 407.96, 387.33 403.55 C 390.53 399.14, 392.24 396.04, 395.34 390.61 C 398.45 385.18, 400.15 381.64, 402.85 376.39 C 405.56 371.14, 407.29 367.97, 408.88 364.37 C 410.46 360.78, 410.84 359.07, 410.79 358.42 C 410.74 357.76, 409.23 358.53, 408.63 361.10 C 408.03 363.68, 407.83 366.38, 407.80 371.29 C 407.78 376.20, 407.75 380.22, 408.51 385.66 C 409.26 391.11, 409.82 393.95, 411.59 398.50 C 413.35 403.06, 414.55 405.26, 417.32 408.44 C 420.09 411.63, 421.87 412.87, 425.46 414.42 C 429.05 415.97, 431.24 416.46, 435.26 416.22 C 439.28 415.98, 441.55 415.41, 445.55 413.22 C 449.55 411.03, 451.63 409.26, 455.26 405.28 C 458.90 401.30, 460.64 398.62, 463.73 393.31 C 466.82 388.00, 468.32 384.64, 470.70 378.73 C 473.07 372.81, 474.25 369.29, 475.61 363.74 C 476.97 358.20, 477.46 355.42, 477.49 351.00 C 477.53 346.59, 477.44 344.22, 475.80 341.68 C 474.16 339.14, 472.15 338.01, 469.30 338.29 C 466.44 338.58, 464.48 339.87, 461.52 343.10 C 458.57 346.33, 457.02 348.95, 454.53 354.44 C 452.05 359.93, 450.74 363.72, 449.11 370.54 C 447.47 377.36, 446.70 381.67, 446.35 388.54 C 445.99 395.41, 446.09 399.08, 447.34 404.89 C 448.58 410.71, 449.73 413.52, 452.57 417.60 C 455.41 421.68, 457.39 423.31, 461.52 425.31 C 465.66 427.32, 468.30 427.70, 473.24 427.62 C 478.19 427.54, 481.03 427.13, 486.23 424.91 C 491.42 422.70, 494.13 421.02, 499.22 416.53 C 504.31 412.04, 506.87 409.23, 511.69 402.49 C 516.50 395.74, 518.86 391.48, 523.29 382.78 C 527.73 374.08, 529.95 368.62, 533.87 358.99 C 537.80 349.35, 539.63 344.06, 542.92 334.60 C 546.21 325.13, 547.71 319.93, 550.33 311.66 C 552.95 303.40, 554.15 299.52, 556.04 293.28 C 557.92 287.05, 558.92 284.24, 559.75 280.51 C 560.57 276.78, 560.51 275.20, 560.15 274.65 C 559.79 274.10, 558.81 274.65, 557.97 277.77 C 557.13 280.89, 557.00 283.80, 555.95 290.27 C 554.90 296.74, 554.02 301.26, 552.73 310.14 C 551.44 319.02, 550.70 324.78, 549.49 334.67 C 548.28 344.55, 547.60 350.16, 546.68 359.56 C 545.76 368.97, 545.41 373.75, 544.90 381.69 C 544.40 389.62, 544.32 393.28, 544.15 399.23 C 543.98 405.19, 543.77 407.67, 544.04 411.48 C 544.31 415.28, 544.64 416.75, 545.49 418.25 C 546.34 419.75, 547.37 419.76, 548.27 418.97 C 549.18 418.17, 550.04 416.98, 550.02 414.27 C 550.00 411.56, 549.15 409.41, 548.16 405.43 C 547.17 401.45, 546.30 398.69, 545.07 394.35 C 543.84 390.01, 542.90 387.26, 542.01 383.73 C 541.12 380.21, 540.84 378.87, 540.62 376.72 C 540.41 374.58, 540.16 373.75, 540.94 373.00 C 541.71 372.24, 542.17 372.96, 544.49 372.94 C 546.82 372.92, 548.61 373.01, 552.56 372.90 C 556.50 372.80, 559.06 372.77, 564.22 372.42 C 569.39 372.06, 572.48 371.98, 578.39 371.11 C 584.31 370.24, 587.62 369.60, 593.82 368.04 C 600.02 366.49, 603.45 365.55, 609.40 363.35 C 615.34 361.15, 618.49 359.68, 623.53 357.05 C 628.57 354.41, 630.94 352.88, 634.60 350.17 C 638.27 347.45, 640.12 346.15, 641.86 343.46 C 643.60 340.76, 643.88 338.86, 643.32 336.71 C 642.76 334.57, 641.46 333.17, 639.06 332.73 C 636.65 332.29, 634.55 332.61, 631.31 334.51 C 628.08 336.41, 626.14 338.38, 622.88 342.24 C 619.63 346.09, 617.76 348.67, 615.04 353.76 C 612.32 358.86, 610.91 362.04, 609.27 367.71 C 607.62 373.38, 606.96 376.80, 606.83 382.12 C 606.70 387.44, 607.03 390.17, 608.61 394.29 C 610.18 398.40, 611.63 400.29, 614.72 402.69 C 617.82 405.08, 619.98 405.72, 624.10 406.26 C 628.21 406.81, 630.66 406.60, 635.29 405.40 C 639.92 404.21, 642.59 402.99, 647.26 400.28 C 651.93 397.58, 654.23 395.76, 658.64 391.89 C 663.05 388.01, 665.33 385.64, 669.32 380.91 C 673.31 376.18, 675.25 373.20, 678.59 368.24 C 681.94 363.27, 683.75 359.99, 686.03 356.08 C 688.30 352.16, 689.27 350.17, 689.97 348.65 C 690.67 347.13, 689.84 347.01, 689.52 348.49 C 689.20 349.97, 688.85 352.16, 688.36 356.04 C 687.88 359.92, 687.50 363.21, 687.10 367.89 C 686.70 372.57, 686.29 375.48, 686.36 379.44 C 686.43 383.40, 686.30 385.24, 687.44 387.71 C 688.58 390.18, 689.68 391.04, 692.06 391.79 C 694.44 392.54, 696.29 392.67, 699.35 391.44 C 702.42 390.22, 704.02 388.56, 707.40 385.68 C 710.77 382.80, 712.56 380.74, 716.24 377.05 C 719.93 373.36, 722.06 370.98, 725.83 367.24 C 729.60 363.49, 731.82 361.03, 735.09 358.31 C 738.36 355.60, 740.12 354.61, 742.17 353.67 C 744.22 352.73, 744.39 352.52, 745.35 353.61 C 746.31 354.69, 746.32 356.30, 746.97 359.09 C 747.61 361.89, 747.80 363.92, 748.57 367.57 C 749.34 371.22, 749.49 373.76, 750.80 377.34 C 752.11 380.92, 753.00 382.80, 755.13 385.48 C 757.27 388.16, 758.54 389.37, 761.46 390.74 C 764.38 392.11, 766.29 392.63, 769.72 392.35 C 773.15 392.06, 775.02 391.28, 778.59 389.31 C 782.16 387.33, 783.87 385.76, 787.59 382.47 C 791.32 379.17, 793.36 377.00, 797.22 372.83 C 801.08 368.65, 803.32 366.07, 806.89 361.58 C 810.46 357.09, 812.22 354.45, 815.07 350.36 C 817.92 346.27, 819.57 344.18, 821.13 341.13 C 822.70 338.08, 823.13 336.60, 822.91 335.12 C 822.69 333.63, 821.59 333.19, 820.05 333.72 C 818.51 334.24, 816.89 335.19, 815.22 337.74 C 813.56 340.29, 812.68 342.75, 811.73 346.45 C 810.78 350.15, 810.44 352.57, 810.48 356.25 C 810.53 359.92, 810.54 362.05, 811.94 364.83 C 813.35 367.60, 814.81 368.81, 817.51 370.10 C 820.21 371.39, 821.97 371.68, 825.45 371.28 C 828.94 370.89, 831.18 370.05, 834.93 368.13 C 838.69 366.22, 840.73 364.59, 844.23 361.70 C 847.73 358.80, 849.63 356.95, 852.43 353.66 C 855.24 350.37, 856.71 348.43, 858.26 345.25 C 859.80 342.07, 860.41 340.11, 860.17 337.77 C 859.92 335.43, 859.02 334.10, 857.03 333.55 C 855.05 333.00, 853.07 333.01, 850.24 335.03 C 847.40 337.05, 845.80 339.20, 842.85 343.65 C 839.90 348.10, 838.16 351.08, 835.49 357.28 C 832.82 363.48, 831.40 367.21, 829.50 374.64 C 827.59 382.07, 826.91 386.27, 825.96 394.44 C 825.01 402.61, 824.95 406.90, 824.75 415.49 C 824.55 424.08, 824.83 428.63, 824.97 437.41 C 825.10 446.18, 825.48 450.77, 825.40 459.36 C 825.32 467.95, 825.20 472.20, 824.57 480.35 C 823.95 488.50, 823.48 492.70, 822.27 500.10 C 821.06 507.51, 820.25 511.41, 818.52 517.38 C 816.78 523.36, 815.66 525.86, 813.60 529.96 C 811.54 534.06, 810.21 535.65, 808.21 537.88 C 806.21 540.10, 805.33 540.69, 803.60 541.08 C 801.87 541.47, 801.38 541.23, 799.57 539.84 C 797.75 538.45, 796.36 537.43, 794.51 534.13 C 792.66 530.83, 791.37 528.59, 790.30 523.34 C 789.22 518.10, 788.75 514.66, 789.14 507.90 C 789.53 501.14, 790.06 497.22, 792.25 489.53 C 794.44 481.84, 796.05 477.77, 800.10 469.45 C 804.14 461.14, 806.83 456.72, 812.49 447.95 C 818.14 439.18, 821.48 434.70, 828.39 425.61 C 835.30 416.52, 839.18 411.84, 847.02 402.51 C 854.86 393.19, 859.25 388.42, 867.60 378.99 C 875.94 369.55, 880.45 364.67, 888.74 355.32 C 897.03 345.96, 901.42 341.18, 909.06 332.21 C 916.70 323.23, 920.54 318.82, 926.94 310.44 C 933.34 302.06, 936.32 297.84, 941.07 290.29 C 945.82 282.75, 947.83 279.08, 950.71 272.73 C 953.59 266.38, 954.68 263.41, 955.48 258.52 C 956.28 253.64, 956.25 251.20, 954.71 248.30 C 953.17 245.41, 951.21 244.00, 947.79 244.04 C 944.37 244.08, 941.95 245.15, 937.62 248.51 C 933.29 251.87, 930.78 254.33, 926.14 260.84 C 921.50 267.35, 918.79 271.65, 914.42 281.06 C 910.05 290.48, 907.96 296.37, 904.29 307.92 C 900.62 319.47, 899.00 326.20, 896.07 338.81 C 893.15 351.43, 891.92 358.39, 889.67 370.98 C 887.41 383.57, 886.56 390.27, 884.81 401.77 C 883.06 413.26, 882.25 418.95, 880.92 428.46 C 879.60 437.97, 879.10 442.34, 878.18 449.32 C 877.25 456.30, 876.70 459.09, 876.29 463.34 C 875.87 467.60, 875.85 469.12, 876.09 470.60 C 876.34 472.07, 877.02 472.12, 877.51 470.72 C 878.00 469.32, 878.01 467.82, 878.52 463.59 C 879.04 459.36, 879.32 456.54, 880.10 449.56 C 880.89 442.57, 881.25 438.18, 882.46 428.66 C 883.67 419.14, 884.45 413.46, 886.15 401.97 C 887.84 390.48, 888.69 383.78, 890.94 371.21 C 893.18 358.64, 894.41 351.68, 897.36 339.11 C 900.31 326.55, 901.96 319.83, 905.69 308.37 C 909.42 296.91, 911.56 291.05, 916.02 281.82 C 920.48 272.59, 923.31 268.39, 927.99 262.21 C 932.67 256.02, 935.44 253.83, 939.43 250.89 C 943.42 247.94, 945.46 247.69, 947.94 247.46 C 950.42 247.24, 950.84 247.62, 951.83 249.75 C 952.82 251.89, 953.49 253.71, 952.90 258.14 C 952.31 262.57, 951.51 265.66, 948.86 271.92 C 946.21 278.18, 944.28 281.89, 939.66 289.42 C 935.05 296.95, 932.12 301.18, 925.79 309.57 C 919.47 317.95, 915.65 322.36, 908.04 331.34 C 900.44 340.32, 896.06 345.11, 887.78 354.47 C 879.49 363.82, 874.99 368.69, 866.63 378.13 C 858.27 387.57, 853.87 392.32, 845.99 401.64 C 838.12 410.96, 834.21 415.65, 827.24 424.74 C 820.27 433.82, 816.90 438.30, 811.15 447.09 C 805.40 455.87, 802.67 460.29, 798.49 468.66 C 794.31 477.03, 792.62 481.13, 790.24 488.94 C 787.87 496.76, 787.23 500.73, 786.62 507.72 C 786.00 514.71, 786.29 518.25, 787.16 523.90 C 788.04 529.56, 789.02 532.08, 791.00 536.00 C 792.98 539.91, 794.39 541.75, 797.07 543.46 C 799.75 545.18, 801.63 545.21, 804.40 544.57 C 807.17 543.93, 808.55 542.95, 810.91 540.28 C 813.27 537.60, 814.21 535.64, 816.18 531.18 C 818.16 526.73, 819.17 524.17, 820.79 518.02 C 822.42 511.86, 823.18 507.93, 824.31 500.42 C 825.44 492.92, 825.88 488.70, 826.47 480.49 C 827.05 472.28, 827.18 468.00, 827.24 459.38 C 827.31 450.76, 826.93 446.15, 826.81 437.38 C 826.69 428.61, 826.41 424.08, 826.64 415.54 C 826.88 407.00, 826.96 402.75, 827.98 394.69 C 828.99 386.63, 829.70 382.48, 831.71 375.23 C 833.73 367.98, 835.21 364.33, 838.04 358.44 C 840.87 352.55, 842.84 349.73, 845.86 345.79 C 848.88 341.84, 850.97 340.64, 853.14 338.71 C 855.32 336.78, 856.04 336.37, 856.74 336.13 C 857.43 335.88, 857.13 336.10, 856.60 337.50 C 856.07 338.90, 855.55 340.41, 854.09 343.12 C 852.63 345.83, 851.79 347.97, 849.30 351.05 C 846.81 354.13, 844.91 355.90, 841.64 358.52 C 838.38 361.14, 836.33 362.56, 832.97 364.16 C 829.61 365.75, 827.58 366.11, 824.85 366.50 C 822.12 366.89, 821.04 366.85, 819.31 366.13 C 817.59 365.41, 816.93 364.84, 816.21 362.90 C 815.49 360.97, 815.46 359.39, 815.74 356.44 C 816.01 353.49, 816.54 351.32, 817.60 348.16 C 818.65 344.99, 820.13 343.17, 821.00 340.61 C 821.87 338.04, 822.00 336.58, 821.96 335.35 C 821.92 334.12, 821.71 333.72, 820.81 334.47 C 819.90 335.21, 819.14 336.26, 817.44 339.07 C 815.74 341.88, 814.89 344.40, 812.30 348.52 C 809.71 352.64, 807.97 355.26, 804.49 359.68 C 801.01 364.10, 798.74 366.63, 794.90 370.64 C 791.06 374.66, 788.92 376.75, 785.27 379.75 C 781.63 382.75, 779.83 384.05, 776.65 385.65 C 773.47 387.24, 772.01 387.57, 769.38 387.73 C 766.75 387.90, 765.61 387.50, 763.50 386.47 C 761.40 385.44, 760.49 384.72, 758.85 382.57 C 757.21 380.43, 756.37 378.96, 755.31 375.76 C 754.24 372.56, 754.23 370.19, 753.51 366.56 C 752.79 362.93, 752.91 360.71, 751.70 357.61 C 750.49 354.51, 749.65 352.57, 747.48 351.05 C 745.30 349.53, 743.78 349.11, 740.83 350.00 C 737.88 350.89, 736.19 352.53, 732.71 355.49 C 729.23 358.46, 727.22 361.03, 723.43 364.82 C 719.63 368.62, 717.48 370.96, 713.74 374.46 C 709.99 377.97, 707.99 379.85, 704.71 382.35 C 701.42 384.85, 699.70 385.71, 697.32 386.94 C 694.95 388.18, 694.09 388.62, 692.83 388.52 C 691.57 388.41, 691.43 388.22, 691.04 386.41 C 690.64 384.61, 690.69 383.11, 690.85 379.49 C 691.01 375.87, 691.42 372.94, 691.85 368.32 C 692.28 363.69, 692.94 360.43, 693.00 356.36 C 693.06 352.29, 693.16 349.86, 692.16 347.96 C 691.15 346.05, 689.80 345.56, 687.97 346.82 C 686.13 348.09, 685.35 350.33, 682.99 354.29 C 680.63 358.26, 679.32 361.68, 676.17 366.65 C 673.01 371.62, 671.11 374.53, 667.22 379.14 C 663.34 383.75, 661.06 386.03, 656.75 389.70 C 652.44 393.38, 650.15 395.05, 645.69 397.51 C 641.22 399.96, 638.66 400.97, 634.44 402.00 C 630.21 403.02, 628.07 403.06, 624.56 402.64 C 621.04 402.21, 619.44 401.77, 616.87 399.86 C 614.29 397.96, 613.07 396.63, 611.68 393.09 C 610.28 389.56, 609.80 387.10, 609.89 382.19 C 609.99 377.28, 610.55 373.93, 612.15 368.56 C 613.75 363.19, 615.15 360.08, 617.88 355.34 C 620.62 350.60, 622.62 348.21, 625.81 344.86 C 629.00 341.52, 631.22 340.32, 633.84 338.61 C 636.46 336.91, 637.59 336.61, 638.92 336.32 C 640.25 336.02, 640.59 336.18, 640.50 337.13 C 640.40 338.09, 640.03 338.98, 638.44 341.07 C 636.85 343.16, 635.82 344.87, 632.57 347.57 C 629.32 350.26, 627.01 351.90, 622.19 354.56 C 617.37 357.22, 614.28 358.70, 608.47 360.87 C 602.67 363.05, 599.27 363.98, 593.18 365.43 C 587.09 366.89, 583.83 367.49, 578.00 368.16 C 572.18 368.84, 569.16 368.77, 564.08 368.82 C 558.99 368.88, 556.58 368.57, 552.57 368.44 C 548.56 368.30, 546.83 367.68, 544.04 368.15 C 541.24 368.62, 540.14 369.08, 538.59 370.80 C 537.04 372.52, 536.48 373.96, 536.30 376.75 C 536.12 379.55, 536.82 381.03, 537.70 384.78 C 538.58 388.53, 539.64 391.14, 540.70 395.50 C 541.76 399.86, 542.22 402.64, 542.98 406.57 C 543.73 410.50, 543.69 412.71, 544.48 415.14 C 545.27 417.58, 546.21 418.26, 546.92 418.75 C 547.62 419.25, 547.92 419.11, 548.00 417.61 C 548.07 416.10, 547.60 414.90, 547.30 411.23 C 547.00 407.56, 546.58 405.14, 546.49 399.25 C 546.39 393.36, 546.43 389.70, 546.82 381.80 C 547.21 373.89, 547.55 369.11, 548.46 359.74 C 549.36 350.36, 550.03 344.75, 551.34 334.90 C 552.64 325.06, 553.47 319.31, 554.97 310.49 C 556.46 301.67, 557.52 297.22, 558.82 290.79 C 560.11 284.35, 561.28 281.61, 561.44 278.31 C 561.60 275.01, 560.53 274.01, 559.62 274.30 C 558.71 274.58, 558.03 276.07, 556.89 279.75 C 555.75 283.43, 555.57 286.41, 553.91 292.68 C 552.26 298.96, 551.12 302.86, 548.61 311.13 C 546.10 319.41, 544.62 324.61, 541.36 334.06 C 538.10 343.50, 536.27 348.77, 532.33 358.36 C 528.40 367.94, 526.15 373.37, 521.69 381.96 C 517.23 390.54, 514.84 394.73, 510.02 401.28 C 505.21 407.83, 502.61 410.49, 497.63 414.69 C 492.65 418.89, 490.02 420.32, 485.14 422.29 C 480.25 424.26, 477.66 424.48, 473.20 424.54 C 468.74 424.59, 466.49 424.28, 462.83 422.57 C 459.16 420.86, 457.46 419.63, 454.87 415.99 C 452.28 412.34, 451.07 409.81, 449.88 404.34 C 448.68 398.88, 448.51 395.30, 448.89 388.67 C 449.26 382.05, 450.05 377.78, 451.76 371.20 C 453.47 364.63, 454.92 360.92, 457.43 355.81 C 459.95 350.69, 461.87 348.46, 464.35 345.63 C 466.83 342.79, 468.16 342.08, 469.83 341.64 C 471.51 341.19, 471.87 341.55, 472.73 343.42 C 473.59 345.29, 474.12 347.06, 474.13 350.99 C 474.14 354.92, 473.98 357.73, 472.77 363.08 C 471.57 368.42, 470.43 371.94, 468.12 377.69 C 465.82 383.45, 464.29 386.77, 461.25 391.85 C 458.21 396.93, 456.41 399.46, 452.93 403.11 C 449.46 406.75, 447.45 408.21, 443.87 410.07 C 440.29 411.93, 438.43 412.23, 435.04 412.41 C 431.65 412.59, 429.95 412.22, 426.93 410.96 C 423.90 409.71, 422.36 408.88, 419.93 406.15 C 417.50 403.42, 416.31 401.49, 414.78 397.30 C 413.25 393.11, 412.85 390.39, 412.29 385.19 C 411.73 380.00, 411.92 376.11, 411.98 371.32 C 412.03 366.54, 412.93 364.04, 412.56 361.27 C 412.18 358.50, 411.49 357.18, 410.11 357.48 C 408.74 357.77, 407.67 359.24, 405.66 362.74 C 403.66 366.24, 402.66 369.72, 400.07 374.99 C 397.48 380.26, 395.82 383.79, 392.72 389.09 C 389.63 394.39, 387.80 397.39, 384.59 401.49 C 381.39 405.58, 379.57 407.23, 376.70 409.57 C 373.83 411.91, 372.47 412.46, 370.24 413.20 C 368.01 413.95, 367.46 413.98, 365.55 413.29 C 363.63 412.60, 362.59 411.97, 360.67 409.76 C 358.75 407.54, 357.70 405.98, 355.95 402.21 C 354.20 398.45, 353.33 395.93, 351.92 390.93 C 350.50 385.93, 349.84 382.30, 348.87 377.22 C 347.90 372.15, 347.72 369.43, 347.06 365.57 C 346.39 361.70, 346.33 359.40, 345.56 357.92 C 344.79 356.44, 343.64 356.53, 343.20 358.17" style="stroke: black; fill: black;"/><path d="M 866.97,388.92 C 867.70 389.25, 867.99 389.01, 869.59 388.82 C 871.18 388.63, 872.23 388.84, 874.94 387.95 C 877.64 387.07, 879.24 385.96, 883.11 384.40 C 886.99 382.84, 889.32 382.12, 894.33 380.17 C 899.33 378.22, 902.45 377.22, 908.13 374.64 C 913.80 372.05, 916.97 370.43, 922.71 367.25 C 928.46 364.07, 931.47 362.14, 936.85 358.73 C 942.22 355.32, 945.18 353.53, 949.59 350.20 C 954.01 346.88, 956.10 345.20, 958.92 342.11 C 961.74 339.01, 963.01 337.38, 963.69 334.73 C 964.37 332.07, 964.00 330.33, 962.32 328.83 C 960.64 327.34, 958.50 326.59, 955.28 327.25 C 952.07 327.91, 949.90 329.46, 946.25 332.14 C 942.60 334.83, 940.45 336.74, 937.04 340.65 C 933.63 344.57, 931.46 347.30, 929.21 351.71 C 926.96 356.13, 926.18 358.59, 925.79 362.73 C 925.41 366.88, 925.61 369.16, 927.29 372.42 C 928.98 375.67, 930.67 377.19, 934.21 379.01 C 937.74 380.83, 940.27 381.24, 944.98 381.52 C 949.70 381.81, 952.42 381.48, 957.79 380.44 C 963.16 379.41, 966.13 378.48, 971.82 376.34 C 977.52 374.20, 980.67 372.71, 986.28 369.73 C 991.89 366.74, 994.92 364.60, 999.88 361.41 C 1004.83 358.21, 1007.57 355.99, 1011.04 353.74 C 1014.52 351.48, 1015.78 350.65, 1017.25 350.13 C 1018.73 349.61, 1018.45 349.65, 1018.40 351.13 C 1018.36 352.62, 1017.42 354.24, 1017.03 357.55 C 1016.64 360.86, 1016.04 363.79, 1016.45 367.68 C 1016.87 371.58, 1017.40 374.04, 1019.10 377.01 C 1020.80 379.99, 1022.07 381.14, 1024.95 382.55 C 1027.82 383.96, 1029.73 384.24, 1033.48 384.08 C 1037.24 383.91, 1039.78 383.54, 1043.72 381.72 C 1047.67 379.89, 1049.48 378.11, 1053.21 374.97 C 1056.93 371.82, 1059.29 369.75, 1062.35 366.00 C 1065.41 362.25, 1066.77 359.73, 1068.52 356.23 C 1070.26 352.72, 1070.95 350.19, 1071.08 348.47 C 1071.20 346.75, 1070.30 346.43, 1069.15 347.63 C 1067.99 348.83, 1067.25 351.27, 1065.31 354.47 C 1063.38 357.67, 1062.38 360.12, 1059.47 363.64 C 1056.57 367.16, 1054.29 369.22, 1050.81 372.09 C 1047.32 374.95, 1045.55 376.45, 1042.05 377.96 C 1038.54 379.46, 1036.32 379.49, 1033.29 379.61 C 1030.26 379.73, 1028.87 379.54, 1026.91 378.57 C 1024.94 377.60, 1024.48 377.04, 1023.48 374.76 C 1022.48 372.49, 1022.15 370.60, 1021.92 367.20 C 1021.69 363.80, 1022.44 361.17, 1022.33 357.78 C 1022.23 354.39, 1022.51 352.35, 1021.40 350.24 C 1020.29 348.14, 1019.23 347.15, 1016.79 347.27 C 1014.34 347.38, 1012.88 348.48, 1009.18 350.82 C 1005.47 353.17, 1003.11 355.69, 998.27 358.99 C 993.44 362.29, 990.49 364.40, 985.00 367.33 C 979.52 370.27, 976.40 371.68, 970.84 373.67 C 965.29 375.67, 962.35 376.45, 957.23 377.31 C 952.11 378.16, 949.49 378.28, 945.24 377.93 C 940.98 377.59, 938.86 377.04, 935.95 375.58 C 933.03 374.13, 931.96 373.17, 930.66 370.67 C 929.36 368.17, 929.10 366.55, 929.45 363.09 C 929.80 359.63, 930.32 357.34, 932.40 353.37 C 934.49 349.39, 936.61 346.73, 939.89 343.21 C 943.16 339.68, 945.42 337.98, 948.78 335.73 C 952.13 333.49, 954.26 332.95, 956.65 332.00 C 959.05 331.04, 960.01 330.65, 960.73 330.96 C 961.46 331.26, 961.16 331.76, 960.28 333.52 C 959.39 335.29, 958.80 336.91, 956.32 339.80 C 953.83 342.68, 952.01 344.59, 947.83 347.94 C 943.66 351.28, 940.71 353.12, 935.44 356.53 C 930.16 359.93, 927.15 361.85, 921.45 364.95 C 915.76 368.05, 912.63 369.61, 906.97 372.02 C 901.32 374.42, 898.23 375.33, 893.18 376.96 C 888.13 378.59, 885.76 379.13, 881.73 380.16 C 877.70 381.18, 875.82 381.20, 873.05 382.08 C 870.28 382.96, 869.30 383.53, 867.88 384.55 C 866.45 385.56, 866.11 386.28, 865.93 387.15 C 865.74 388.03, 866.24 388.58, 866.97 388.92" style="stroke: black; fill: black;"/><path d="M 1042.76,297.25 C 1042.64 296.05, 1041.67 294.52, 1040.35 293.37 C 1039.04 292.23, 1037.38 291.47, 1036.17 291.52 C 1034.97 291.56, 1034.21 292.39, 1034.32 293.60 C 1034.42 294.82, 1035.37 296.43, 1036.69 297.58 C 1038.02 298.73, 1039.74 299.44, 1040.96 299.37 C 1042.17 299.30, 1042.88 298.45, 1042.76 297.25" style="stroke: black; fill: black;"/></svg>