<?xml version="1.0" standalone="no"?><!DOCTYPE svg PUBLIC "-//W3C//DTD SVG 1.1//EN" "http://www.w3.org/Graphics/SVG/1.1/DTD/svg11.dtd"><svg t="1548434567209" class="icon" style="" viewBox="0 0 1024 1024" version="1.1" xmlns="http://www.w3.org/2000/svg" p-id="16752" xmlns:xlink="http://www.w3.org/1999/xlink" width="32" height="32"><defs><style type="text/css"></style></defs><path d="M512 64C265.024 64 64 264.96 64 512c0 246.976 201.024 448 448 448s448-201.024 448-448C960 264.96 758.976 64 512 64zM512 128c91.456 0 175.296 32.064 241.344 85.44L213.44 753.28C160.064 687.296 128 603.456 128 512 128 299.968 299.968 128 512 128zM512 896c-97.536 0-186.368-36.672-254.08-96.64l541.44-541.44C859.328 325.632 896 414.464 896 512 896 724.032 724.032 896 512 896z" p-id="16753" fill="#F23329"></path></svg>