<?xml version="1.0" standalone="no"?><!DOCTYPE svg PUBLIC "-//W3C//DTD SVG 1.1//EN" "http://www.w3.org/Graphics/SVG/1.1/DTD/svg11.dtd"><svg t="1548434691104" class="icon" style="" viewBox="0 0 1024 1024" version="1.1" xmlns="http://www.w3.org/2000/svg" p-id="1106" xmlns:xlink="http://www.w3.org/1999/xlink" width="32" height="32"><defs><style type="text/css"></style></defs><path d="M942.049 320.869c-23.246-54.956-56.521-104.31-98.902-146.691-42.381-42.381-91.735-75.657-146.691-98.903-56.902-24.07-117.341-36.274-179.635-36.274-62.29 0-122.727 12.204-179.629 36.274-54.956 23.246-104.311 56.522-146.691 98.903-42.383 42.382-75.658 91.736-98.906 146.691-24.07 56.903-36.275 117.341-36.275 179.635 0 62.293 12.204 122.73 36.273 179.635 23.246 54.955 56.521 104.31 98.904 146.691 42.381 42.381 91.733 75.656 146.689 98.902 56.902 24.069 117.341 36.272 179.635 36.272s122.73-12.203 179.635-36.272c54.956-23.246 104.311-56.521 146.691-98.902 42.381-42.383 75.656-91.736 98.902-146.691 24.068-56.903 36.273-117.342 36.273-179.635C978.322 438.21 966.118 377.772 942.049 320.869zM882.874 655.135c-20.008 47.306-48.651 89.791-85.14 126.279s-78.976 65.135-126.279 85.143c-48.971 20.713-100.998 31.216-154.637 31.216-53.635 0-105.658-10.503-154.629-31.216-47.306-20.008-89.791-48.653-126.279-85.143s-65.135-78.975-85.145-126.279c-20.713-48.971-31.216-100.996-31.216-154.631s10.503-105.66 31.216-154.63c20.01-47.305 48.655-89.792 85.145-126.28 36.488-36.488 78.975-65.135 126.279-85.143 48.971-20.713 100.994-31.215 154.629-31.215s105.66 10.502 154.631 31.215c47.305 20.008 89.791 48.655 126.279 85.143 36.488 36.488 65.135 78.975 85.145 126.28 20.713 48.97 31.215 100.995 31.215 154.63S903.586 606.164 882.874 655.135z" p-id="1107" fill="#3BA0F0"></path><path d="M512.693 258.299c-19.33 0-35 15.67-35 35l0 267.026c0 19.33 15.67 35 35 35s35-15.67 35-35L547.693 293.299C547.693 273.969 532.023 258.299 512.693 258.299z" p-id="1108" fill="#3BA0F0"></path><path d="M512.402 631.584c-19.33 0-35 15.67-35 35l0 35.249c0 19.33 15.67 35 35 35s35-15.67 35-35l0-35.249C547.402 647.254 531.732 631.584 512.402 631.584z" p-id="1109" fill="#3BA0F0"></path></svg>