<?xml version="1.0" standalone="no"?><!DOCTYPE svg PUBLIC "-//W3C//DTD SVG 1.1//EN" "http://www.w3.org/Graphics/SVG/1.1/DTD/svg11.dtd"><svg t="1548434404677" class="icon" style="" viewBox="0 0 1024 1024" version="1.1" xmlns="http://www.w3.org/2000/svg" p-id="14504" xmlns:xlink="http://www.w3.org/1999/xlink" width="32" height="32"><defs><style type="text/css"></style></defs><path d="M1023.999687 475.428739a36.571417 36.571417 0 1 0-73.142835 0c0 3.855672 0.752326 7.512814 1.870367 11.002773l-2.695836 0.720979c0.459755 8.233793 0.825469 16.498934 0.825469 24.847666 0 242.374456-196.493001 438.857009-438.857009 438.857008C269.625387 950.857165 73.142835 754.374613 73.142835 512.000157S269.625387 73.143148 511.999843 73.143148a436.558234 436.558234 0 0 1 239.009886 70.969448A36.351989 36.351989 0 0 0 778.448741 156.734959a36.571417 36.571417 0 0 0 36.571418-36.571417c0-9.49812-3.709387-18.06628-9.654855-24.575992l1.818122-1.807673A509.533885 509.533885 0 0 0 511.999843 0.000313C229.229644 0.000313 0 229.229958 0 512.000157s229.229644 511.999843 511.999843 511.999843c282.780648 0 511.999843-229.229644 511.999844-511.999843 0-9.539915-0.428408-18.975341-1.003102-28.368971A36.048969 36.048969 0 0 0 1023.999687 475.428739z m-746.150956 36.937132c-7.930773-7.920324-20.971096-7.732243-29.131746 0.428408l-14.774853 14.774853c-8.160651 8.160651-8.348732 21.200973-0.417959 29.131746l215.29071 215.290709c7.930773 7.930773 20.971096 7.742692 29.131746-0.417959l9.978773-9.989221c1.316571-0.982204 2.612244-1.995754 3.813876-3.207836l448.03121-448.03121c11.901384-11.901384 13.280649-29.821379 3.071999-40.00913l-7.387426-7.387427c-10.20865-10.20865-28.107746-8.829385-40.009131 3.06155L463.474797 698.002386 277.848731 512.365871z" fill="#1DC023" p-id="14505"></path></svg>